<!-- cloud -->
<svg width="24" height="16" viewBox="0 0 24 16" fill="none" xmlns="http://www.w3.org/2000/svg">
<path d="M19 16H3C1.34315 16 0 14.6568 0 13C0 11.6762 0.857438 10.5526 2.04725 10.1544C2.01612 9.94079 2 9.72228 2 9.49999C2 7.01471 4.01472 4.99999 6.5 4.99999C6.72514 4.99999 6.94642 5.01653 7.16268 5.04844C7.82213 2.15736 10.4091 -7.62939e-06 13.5 -7.62939e-06C16.9547 -7.62939e-06 19.7799 2.69514 19.9877 6.09754C22.2761 6.55606 24 8.5767 24 11C24 13.7614 21.7614 16 19 16Z" fill="white"/>
</svg>
